<svg height="512pt" viewBox="0 0 512 512" width="512pt" xmlns="http://www.w3.org/2000/svg"><path d="m256.019531 81.769531c-5.523437 0-10.003906-4.476562-10.003906-10 0-5.523437 4.472656-10 9.996094-10h.007812c5.523438 0 10 4.476563 10 10 0 5.523438-4.476562 10-10 10zm0 0"/><path d="m492 411.980469h-16.039062v-200.039063c0-58.179687-22.5625-107.050781-65.25-141.3125-36.972657-29.679687-88.0625-46.757812-144.75-48.558594v-12.070312c0-5.519531-4.480469-10-10-10-5.519532 0-10 4.480469-10 10v12.070312c-56.691407 1.800782-107.78125 18.878907-144.75 48.558594-42.691407 34.261719-65.25 83.132813-65.25 141.3125v200.039063h-15.960938c-11.03125 0-20 8.96875-20 20v20.007812c0 11.03125 8.96875 20 20 20h77.71875c-1.117188 3.132813-1.71875 6.5-1.71875 10.011719 0 16.539062 13.460938 30 30 30s30-13.460938 30-30c0-3.511719-.601562-6.878906-1.71875-10.011719h213.4375c-1.117188 3.132813-1.71875 6.5-1.71875 10.011719 0 16.539062 13.460938 30 30 30s30-13.460938 30-30c0-3.511719-.601562-6.878906-1.71875-10.011719h67.71875c11.03125 0 20-8.96875 20-20v-20.007812c0-11.03125-8.96875-20-20-20zm-436.039062-200.039063c0-51.910156 19.96875-95.382812 57.769531-125.722656 35.589843-28.570312 86.097656-44.308594 142.230469-44.308594 56.117187 0 106.628906 15.738282 142.230468 44.308594 37.789063 30.339844 57.769532 73.8125 57.769532 125.722656v200.039063h-49.960938v-149.941407c0-16.539062-13.460938-30-30-30h-51.160156c-4.058594-18.628906-18.570313-40.007812-38.839844-40.007812h-60c-10.988281 0-21.460938 6.4375-29.460938 18.140625-4.539062 6.628906-7.820312 14.339844-9.429687 21.867187h-51.109375c-16.539062 0-30 13.460938-30 30v149.941407h-50.039062zm140.039062 110.109375h120c22.058594 0 40-17.941406 40-40v-30.011719h20c5.511719 0 10 4.480469 10 10v150.03125h-260v-150.03125c0-5.519531 4.488281-10 10-10h20v30.011719c0 22.058594 17.941406 40 40 40zm140-70.011719v30.011719c0 11.027344-8.96875 20-20 20h-120c-11.03125 0-20-8.972656-20-20v-30.011719zm-128.300781-20c3.539062-10.828124 11.949219-20.007812 18.300781-20.007812h60c4.070312 0 8.921875 3.527344 12.960938 9.4375 2.199218 3.210938 3.988281 6.890625 5.210937 10.570312zm-81.699219 259.960938c-5.511719 0-10-4.488281-10-10 0-5.519531 4.488281-10.011719 10-10.011719s10 4.492188 10 10.011719c0 5.511719-4.488281 10-10 10zm270 0c-5.511719 0-10-4.488281-10-10 0-5.519531 4.488281-10.011719 10-10.011719s10 4.492188 10 10.011719c0 5.511719-4.488281 10-10 10zm96-40.011719h-472v-20.007812h472zm0 0"/></svg>