<svg height="512pt" viewBox="0 0 512 512" width="512pt" xmlns="http://www.w3.org/2000/svg"><path d="m256 512c-68.378906 0-132.667969-26.628906-181.019531-74.980469-48.351563-48.351562-74.980469-112.640625-74.980469-181.019531s26.628906-132.667969 74.980469-181.019531c48.351562-48.351563 112.640625-74.980469 181.019531-74.980469s132.667969 26.628906 181.019531 74.980469c48.351563 48.351562 74.980469 112.640625 74.980469 181.019531s-26.628906 132.667969-74.980469 181.019531c-48.351562 48.351563-112.640625 74.980469-181.019531 74.980469zm0-492c-63.039062 0-122.304688 24.546875-166.878906 69.121094-44.574219 44.574218-69.121094 103.839844-69.121094 166.878906s24.546875 122.304688 69.121094 166.878906c44.574218 44.574219 103.839844 69.121094 166.878906 69.121094s122.304688-24.546875 166.878906-69.121094c44.574219-44.574218 69.121094-103.839844 69.121094-166.878906s-24.546875-122.304688-69.121094-166.878906c-44.574218-44.574219-103.839844-69.121094-166.878906-69.121094zm0 0"/><path d="m452 266c-5.523438 0-10-4.476562-10-10 0-102.5625-83.4375-186-186-186-5.523438 0-10-4.476562-10-10s4.476562-10 10-10c113.589844 0 206 92.410156 206 206 0 5.523438-4.476562 10-10 10zm0 0"/><path d="m121.5625 235.882812c-1.007812 0-2.023438-.046874-3.042969-.136718-9.066406-.792969-17.261719-5.046875-23.082031-11.984375l-1.285156-1.53125c-12.050782-14.363281-10.171875-35.851563 4.191406-47.902344l55.152344-46.28125c6.9375-5.820313 15.75-8.589844 24.816406-7.792969 9.066406.792969 17.261719 5.046875 23.085938 11.984375l1.285156 1.53125c12.050781 14.363281 10.167968 35.851563-4.191406 47.902344l-55.15625 46.28125c-6.15625 5.164063-13.792969 7.929687-21.773438 7.929687zm53.777344-95.78125c-3.175782 0-6.367188 1.070313-8.988282 3.269532l-55.152343 46.28125c-2.84375 2.386718-4.59375 5.761718-4.917969 9.503906-.328125 3.746094.804688 7.375 3.191406 10.21875l1.285156 1.53125c2.386719 2.84375 5.765626 4.589844 9.507813 4.917969 3.75.328125 7.371094-.804688 10.214844-3.191407l55.15625-46.28125c5.914062-4.960937 6.6875-13.8125 1.726562-19.722656l-1.285156-1.535156c-2.765625-3.292969-6.738281-4.992188-10.738281-4.992188zm0 0"/><path d="m121.5625 356.878906c-1.007812 0-2.023438-.046875-3.042969-.136718-9.066406-.792969-17.261719-5.046876-23.082031-11.984376l-1.285156-1.53125c-5.820313-6.9375-8.589844-15.75-7.796875-24.816406s5.050781-17.265625 11.988281-23.085937l55.152344-46.28125c6.9375-5.820313 15.75-8.589844 24.816406-7.796875 9.066406.792968 17.261719 5.050781 23.085938 11.988281l1.285156 1.53125c12.050781 14.363281 10.167968 35.851563-4.191406 47.902344l-55.15625 46.277343c-6.15625 5.167969-13.792969 7.933594-21.773438 7.933594zm53.777344-95.78125c-3.175782 0-6.367188 1.070313-8.988282 3.269532l-55.152343 46.28125c-2.84375 2.382812-4.59375 5.761718-4.917969 9.503906-.328125 3.746094.804688 7.375 3.191406 10.214844l1.285156 1.535156c2.386719 2.84375 5.765626 4.589844 9.507813 4.917968 3.75.328126 7.371094-.804687 10.214844-3.191406l55.15625-46.28125c5.914062-4.960937 6.6875-13.8125 1.726562-19.726562l-1.285156-1.53125c-2.765625-3.292969-6.738281-4.992188-10.738281-4.992188zm0 0"/><path d="m351.496094 427.515625h-41.875c-27.539063 0-53.351563-15.890625-67.355469-41.464844l-15.835937-28.917969c-.230469-.421874-.429688-.859374-.597657-1.308593-7.621093-20.429688-6.234375-43.144531 3.808594-62.316407l35.863281-68.460937c.355469-.679687.789063-1.3125 1.289063-1.894531 12.605469-14.597656 30.453125-22.96875 48.96875-22.96875 18.367187 0 36.078125 8.238281 48.660156 22.613281l45.175781 43.621094c18.890625 18.238281 23.847656 47.867187 12.058594 72.054687l-31.039062 63.675782c-7.628907 15.644531-22.617188 25.367187-39.121094 25.367187zm-107.164063-79.332031 15.476563 28.257812c10.496094 19.167969 29.582031 31.074219 49.8125 31.074219h41.875c8.792968 0 16.894531-5.414063 21.140625-14.128906l31.042969-63.679688c8.039062-16.492187 4.761718-36.601562-7.976563-48.898437l-45.488281-43.925782c-.21875-.210937-.425782-.429687-.621094-.660156-8.933594-10.34375-20.945312-16.039062-33.832031-16.039062-12.539063 0-24.25 5.394531-33.101563 15.210937l-35.304687 67.394531c-7.195313 13.734376-8.3125 30.652344-3.023438 45.394532zm0 0"/><path d="m322.503906 342.925781c-22.054687 0-40-17.945312-40-40 0-22.058593 17.945313-40 40-40 22.058594 0 40 17.941407 40 40 0 22.054688-17.941406 40-40 40zm0-60c-11.027344 0-20 8.972657-20 20 0 11.027344 8.972656 20 20 20s20-8.972656 20-20c0-11.027343-8.972656-20-20-20zm0 0"/><path d="m216.542969 75.769531c-5.523438 0-10.003907-4.476562-10.003907-10 0-5.523437 4.472657-10 9.992188-10h.011719c5.523437 0 10 4.476563 10 10 0 5.523438-4.476563 10-10 10zm0 0"/><path d="m324.519531 384c-5.523437 0-10.003906-4.476562-10.003906-10s4.46875-10 9.992187-10h.011719c5.523438 0 10 4.476562 10 10s-4.476562 10-10 10zm0 0"/></svg>