<svg height="512pt" viewBox="0 -16 512 512" width="512pt" xmlns="http://www.w3.org/2000/svg"><path d="m211.019531 234c-5.523437 0-10.003906-4.476562-10.003906-10s4.472656-10 9.996094-10h.007812c5.523438 0 10 4.476562 10 10s-4.476562 10-10 10zm0 0"/><path d="m256.007812 140.003906c-3.667968 0-7.199218-2.027344-8.953124-5.53125-9.503907-19.011718-11.730469-36.976562-6.617188-53.398437 1.75-5.804688 4.222656-10.753907 6.617188-15.542969 2.117187-4.230469 4.117187-8.230469 5.367187-12.402344.011719-.035156.019531-.074218.03125-.109375 3.542969-11.328125 1.726563-24.296875-5.398437-38.542969-2.46875-4.941406-.464844-10.949218 4.472656-13.417968 4.9375-2.472656 10.949218-.46875 13.417968 4.472656 9.503907 19.011719 11.730469 36.976562 6.617188 53.398438-1.746094 5.804687-4.222656 10.753906-6.617188 15.542968-2.117187 4.234375-4.113281 8.230469-5.367187 12.402344-.011719.039062-.019531.074219-.03125.109375-3.542969 11.332031-1.726563 24.296875 5.398437 38.546875 2.46875 4.9375.46875 10.945312-4.472656 13.414062-1.4375.71875-2.960937 1.058594-4.464844 1.058594zm0 0"/><path d="m186.007812 140.003906c-3.539062 0-6.972656-1.886718-8.785156-5.214844-8.394531-15.382812-9.117187-30.386718-2.09375-43.402343 3.925782-7.90625 9.320313-23.046875 2.046875-36.679688-2.597656-4.871093-.753906-10.929687 4.117188-13.53125 4.878906-2.597656 10.933593-.753906 13.53125 4.121094 8.558593 16.042969 7.890625 35.640625-1.878907 55.175781-.054687.105469-.109374.210938-.167968.316406-3.753906 6.886719-3.082032 15.105469 2 24.421876 2.648437 4.851562.859375 10.925781-3.988282 13.570312-1.519531.828125-3.160156 1.222656-4.78125 1.222656zm0 0"/><path d="m316.007812 140.003906c-3.539062 0-6.972656-1.886718-8.785156-5.214844-8.394531-15.382812-9.117187-30.386718-2.09375-43.402343 3.925782-7.90625 9.320313-23.046875 2.046875-36.679688-2.597656-4.871093-.753906-10.929687 4.117188-13.53125 4.878906-2.597656 10.933593-.753906 13.53125 4.121094 8.558593 16.042969 7.890625 35.640625-1.878907 55.175781-.054687.105469-.109374.210938-.167968.316406-3.753906 6.886719-3.082032 15.105469 2 24.421876 2.648437 4.851562.859375 10.925781-3.988282 13.570312-1.519531.828125-3.160156 1.222656-4.78125 1.222656zm0 0"/><path d="m492 410h-151.109375c14.589844-7.828125 28.121094-17.867188 40.179687-29.929688 14.050782-14.050781 25.339844-30.089843 33.609376-47.457031 22.832031-2.101562 44.410156-15.070312 61.390624-37.042969 15.140626-19.597656 24.929688-44.859374 24.929688-64.359374 0-8.160157-.949219-19.949219-9.121094-27.980469-10.367187-10.167969-26.777344-9.878907-51.617187-9.417969-2.910157.050781-6.011719.109375-9.261719.148438v-3.960938c0-16.539062-13.460938-30-30-30h-290c-16.539062 0-30 13.460938-30 30v70c0 45.230469 17.730469 87.871094 49.929688 120.070312 12.058593 12.0625 25.589843 22.101563 40.179687 29.929688h-151.109375c-11.03125 0-20 8.972656-20 20 0 27.570312 22.429688 50 50 50h412c27.570312 0 50-22.429688 50-50 0-11.027344-8.96875-20-20-20zm-51.371094-196.199219c18.359375-.328125 32.859375-.597656 37.242188 3.710938 2.078125 2.039062 3.128906 6.648437 3.128906 13.699219 0 25.160156-23.121094 69-57.699219 79.441406 5.070313-16.199219 7.699219-33.230469 7.699219-50.652344v-46.039062c3.390625-.039063 6.609375-.097657 9.628906-.160157zm-295.558594 152.128907c-28.421874-28.417969-44.070312-66.039063-44.070312-105.929688v-26h70c5.519531 0 10-4.480469 10-10s-4.480469-10-10-10h-70v-24c0-5.507812 4.488281-10 10-10h195v35.570312l-26.730469 24.300782c-2.078125 1.898437-3.269531 4.589844-3.269531 7.398437v72.730469c0 5.519531 4.480469 10 10 10h60c5.519531 0 10-4.480469 10-10v-72.730469c0-2.808593-1.191406-5.5-3.269531-7.398437l-26.730469-24.300782v-35.570312h75c5.511719 0 10 4.492188 10 10v70c0 20.261719-4.039062 39.941406-11.75 58.132812 0 .007813-.011719.019532-.011719.027344-.238281.570313-.476562 1.140625-.726562 1.710938-.011719.03125-.023438.050781-.03125.082031-7.429688 16.898437-18.050781 32.476563-31.550781 45.976563-28.417969 28.421874-66.039063 44.070312-105.929688 44.070312h-10c-39.890625 0-77.511719-15.648438-105.929688-44.070312zm170.929688-132.417969 20 18.191406v58.296875h-40v-58.296875zm146 226.488281h-412c-16.539062 0-30-13.457031-30-30h472c0 16.542969-13.460938 30-30 30zm0 0"/></svg>