<svg height="512pt" viewBox="0 -49 512.00038 512" width="512pt" xmlns="http://www.w3.org/2000/svg"><path d="m506.589844 181.210938-349.019532-180.097657c-2.371093-1.222656-5.128906-1.453125-7.671874-.621093-2.527344.820312-4.636719 2.621093-5.839844 5l-28.160156 55.75-19.027344 37.667968c-.011719.011719-.011719.023438-.011719.03125l-18.710937 37.03125c-1.1875 2.371094-1.398438 5.121094-.570313 7.640625.832031 2.519531 2.632813 4.609375 5 5.796875l75.542969 37.992188c-1.761719 5.378906-2.699219 11.121094-2.699219 17.070312 0 28.230469 21.21875 51.621094 48.566406 55.089844v44.4375c0 27.570312-22.488281 50-50.136719 50h-73.710937v-30c0-5.519531-4.46875-10-10-10h-60.140625c-5.519531 0-10 4.480469-10 10v80c0 5.523438 4.480469 10 10 10h60.140625c5.53125 0 10-4.476562 10-10v-30h73.710937c38.667969 0 70.136719-31.398438 70.136719-70v-45.507812c13.222657-3.148438 24.621094-11.011719 32.300781-21.710938l144.609376 72.730469c1.441406.730469 2.972656 1.070312 4.480468 1.070312 3.660156 0 7.179688-2.011719 8.941406-5.488281l4.929688-9.773438 28.53125 14.351563c1.4375.71875 2.980469 1.058594 4.488281 1.058594 3.652344 0 7.171875-2.007813 8.929688-5.488281l18.878906-37.371094c1.191406-2.371094 1.402344-5.121094.570313-7.640625-.828126-2.519531-2.628907-4.609375-5.007813-5.796875l-28.492187-14.332032 4.921874-9.75c1.191407-2.371093 1.398438-5.109374.570313-7.640624-.832031-2.519532-2.628906-4.609376-5.011719-5.800782l-8.808594-4.429687 65.078126-12.558594c4.179687-.808594 7.390624-4.179687 8-8.398437.601562-4.210938-1.527344-8.351563-5.308594-10.3125zm-446.449219 212.789062h-40.140625v-60h40.140625zm153.75-154.097656h-.121094c-.289062.019531-.578125.050781-.871093.058594-.007813 0-.007813 0-.007813 0-.601563.03125-1.21875.050781-1.832031.050781-19.648438 0-35.636719-15.949219-35.636719-35.539063 0-2.722656.308594-5.371094.886719-7.921875l61.78125 31.070313c-5.960938 6.910156-14.550782 11.519531-24.199219 12.28125zm191.960937 37.597656-4.882812 9.660156-136.109375-68.457031-18.5-9.300781-60.230469-30.289063-18.5-9.3125-67.109375-33.75 9.78125-19.359375 77.417969 37.378906 34.5 16.660157 8.402344 4.050781 34.539062 16.679688 77.71875 37.519531c1.359375.660156 2.851563 1 4.351563 1 .628906 0 1.269531-.058594 1.890625-.1875l57.527344-11.101563 23.050781 11.589844-4.917969 9.730469zm51.859376-9.699219-9.859376 19.511719-19.582031-9.851562 9.859375-19.507813zm-48.152344-70.039062-32.167969 6.210937-28.800781 5.558594-108.238282-52.257812-10.480468-5.0625-110.550782-53.367188 9.929688-19.683594h.011719l3.167969-6.289062 63.019531 31.289062c1.429687.710938 2.949219 1.050782 4.441406 1.050782 3.679687 0 7.21875-2.039063 8.96875-5.558594.390625-.789063.671875-1.589844.832031-2.410156.910156-4.339844-1.179687-8.921876-5.339844-10.992188l-62.902343-31.238281 15.910156-31.5 314.410156 162.238281zm0 0"/><path d="m235.816406 123.03125c-5.523437 0-10.007812-4.476562-10.007812-10s4.472656-10 9.996094-10h.011718c5.523438 0 10 4.476562 10 10s-4.476562 10-10 10zm0 0"/></svg>