<svg height="512pt" viewBox="0 0 512 512" width="512pt" xmlns="http://www.w3.org/2000/svg"><path d="m261.019531 167c-5.523437 0-10.003906-4.476562-10.003906-10s4.472656-10 9.996094-10h.007812c5.523438 0 10 4.476562 10 10s-4.476562 10-10 10zm0 0"/><path d="m437.019531 74.980469c-48.347656-48.351563-112.640625-74.980469-181.019531-74.980469s-132.671875 26.628906-181.019531 74.980469c-48.351563 48.347656-74.980469 112.640625-74.980469 181.019531s26.628906 132.671875 74.980469 181.019531c48.347656 48.351563 112.640625 74.980469 181.019531 74.980469s132.671875-26.628906 181.019531-74.980469c48.351563-48.347656 74.980469-112.640625 74.980469-181.019531s-26.628906-132.671875-74.980469-181.019531zm-14.140625 347.898437c-44.578125 44.570313-103.839844 69.121094-166.878906 69.121094s-122.300781-24.550781-166.878906-69.121094c-44.570313-44.578125-69.121094-103.839844-69.121094-166.878906s24.550781-122.300781 69.121094-166.878906c44.578125-44.570313 103.839844-69.121094 166.878906-69.121094s122.300781 24.550781 166.878906 69.121094c44.570313 44.578125 69.121094 103.839844 69.121094 166.878906s-24.550781 122.300781-69.121094 166.878906zm0 0"/><path d="m256 50c-46.039062 0-89.570312 14.851562-125.910156 42.949219-2.269532 1.761719-3.679688 4.410156-3.859375 7.269531-.179688 2.871094.878906 5.679688 2.910156 7.710938l274.929687 274.929687c1.878907 1.878906 4.429688 2.929687 7.070313 2.929687.210937 0 .417969-.007812.640625-.019531 2.859375-.179687 5.507812-1.589843 7.269531-3.859375 28.097657-36.339844 42.949219-79.871094 42.949219-125.910156 0-113.589844-92.410156-206-206-206zm29.5 186h110.5v40h-70.5zm124.441406 124.441406-64.441406-64.441406h60.5c5.519531 0 10-4.480469 10-10v-60c0-5.519531-4.480469-10-10-10h-140.5l-113.941406-113.941406c30.832031-21.007813 66.703125-32.058594 104.441406-32.058594 102.558594 0 186 83.441406 186 186 0 37.738281-11.050781 73.609375-32.058594 104.441406zm0 0"/><path d="m382.859375 404.070312-274.929687-274.929687c-2.03125-2.03125-4.839844-3.082031-7.710938-2.910156-2.859375.179687-5.507812 1.589843-7.269531 3.859375-28.097657 36.339844-42.949219 79.871094-42.949219 125.910156 0 113.589844 92.410156 206 206 206 46.039062 0 89.570312-14.851562 125.910156-42.949219 2.269532-1.761719 3.679688-4.410156 3.859375-7.269531.179688-2.871094-.878906-5.679688-2.910156-7.710938zm-196.859375-168.570312 40.5 40.5h-40.5zm70 206.5c-102.558594 0-186-83.441406-186-186 0-37.738281 11.050781-73.609375 32.058594-104.441406l64.441406 64.441406h-60.5c-5.519531 0-10 4.480469-10 10v60c0 5.519531 4.480469 10 10 10h140.5l113.941406 113.941406c-30.832031 21.007813-66.703125 32.058594-104.441406 32.058594zm-90-206v40h-50v-40zm0 0"/><path d="m389.992188 207c-5.257813 0-9.667969-4.105469-9.976563-9.421875-.058594-.773437-1.835937-21.042969-23.621094-26.921875-15.136719-4.085938-26.609375-14.753906-33.167969-30.855469-4.597656-11.28125-5.164062-21.25-5.214843-22.347656-.25-5.519531 4.019531-10.191406 9.539062-10.441406 5.503907-.234375 10.171875 4.003906 10.4375 9.503906.066407 1.253906 1.820313 28.949219 23.617188 34.832031 28.738281 7.753906 37.667969 32.875 38.378906 45.074219.320313 5.511719-3.890625 10.242187-9.402344 10.5625-.199219.011719-.394531.015625-.589843.015625zm0 0"/><path d="m329.992188 207c-5.257813 0-9.667969-4.105469-9.976563-9.421875-.058594-.773437-1.835937-21.042969-23.621094-26.921875-5.332031-1.441406-8.488281-6.929688-7.046875-12.261719 1.4375-5.332031 6.929688-8.488281 12.257813-7.046875 28.738281 7.753906 37.667969 32.875 38.378906 45.074219.320313 5.511719-3.890625 10.242187-9.402344 10.5625-.199219.011719-.394531.015625-.589843.015625zm0 0"/></svg>