<svg height="512pt" viewBox="-7 0 512 512" width="512pt" xmlns="http://www.w3.org/2000/svg"><path d="m265.402344 494.320312-56.402344-47v-66.320312c0-5.519531-4.476562-10-10-10-5.519531 0-10 4.480469-10 10v66.320312l-56.398438 47c-3.238281 2.691407-4.441406 7.128907-3 11.078126 1.429688 3.960937 5.191407 6.601562 9.398438 6.601562h120c4.210938 0 7.972656-2.640625 9.402344-6.601562 1.441406-3.949219.238281-8.386719-3-11.078126zm-98.78125-2.320312 32.378906-26.980469 32.382812 26.980469zm0 0"/><path d="m199.019531 351c-5.523437 0-10.003906-4.476562-10.003906-10s4.472656-10 9.996094-10h.007812c5.523438 0 10 4.476562 10 10s-4.476562 10-10 10zm0 0"/><path d="m389 0c-57.277344 0-104.476562 44.019531-109.539062 100h-269.460938c-4.039062 0-7.6875 2.441406-9.238281 6.171875-1.550781 3.738281-.6914065 8.039063 2.171875 10.898437l50.808594 50.808594 123.75 134.742188c.101562.109375.199218.207031.300781.308594 5.660156 5.671874 13.199219 8.789062 21.207031 8.789062 8.011719 0 15.542969-3.117188 21.210938-8.789062.089843-.089844.179687-.179688.269531-.28125l99.261719-107.207032c19.539062 15.910156 43.769531 24.558594 69.257812 24.558594 60.652344 0 110-49.351562 110-110s-49.347656-110-110-110zm-354.859375 120h245.3125c.878906 10.59375 3.476563 21.148438 7.457031 31h-221.769531zm171.820313 168.898438c-3.867188 3.75-10.027344 3.75-13.898438.011718l-108.300781-117.910156h213.691406c2.429687 3.648438 5.101563 7.160156 7.949219 10.488281zm183.039062-88.898438c-23.679688 0-46.027344-9.121094-62.957031-25.699219-17.210938-16.722656-27.042969-40.328125-27.042969-64.300781 0-49.628906 40.371094-90 90-90 49.632812 0 90 40.371094 90 90s-40.367188 90-90 90zm0 0"/><path d="m389 180c-18.6875 0-36.265625-7.277344-49.496094-20.496094-13.222656-13.234375-20.503906-30.8125-20.503906-49.503906 0-38.597656 31.402344-70 70-70 38.601562 0 70 31.402344 70 70s-31.398438 70-70 70zm0-120c-27.566406 0-50 22.429688-50 50 0 13.351562 5.203125 25.910156 14.644531 35.363281 9.449219 9.4375 22.003907 14.636719 35.355469 14.636719 27.570312 0 50-22.429688 50-50s-22.429688-50-50-50zm0 0"/></svg>