<svg height="512pt" viewBox="0 -66 512 512" width="512pt" xmlns="http://www.w3.org/2000/svg"><path d="m502 320h-61v-40h61c5.519531 0 10-4.480469 10-10 0-61.441406-23.921875-119.191406-67.371094-162.628906-35.4375-35.449219-80.410156-57.902344-129.128906-64.960938-3.179688-23.980468-21.179688-42.410156-42.828125-42.410156h-33.34375c-21.648437 0-39.648437 18.429688-42.828125 42.410156-48.71875 7.058594-93.691406 29.511719-129.128906 64.960938-43.449219 43.4375-67.371094 101.1875-67.371094 162.628906 0 5.519531 4.480469 10 10 10h61v40h-61c-5.519531 0-10 4.480469-10 10v30c0 11.03125 8.96875 20 20 20h472c11.03125 0 20-8.96875 20-20v-30c0-5.519531-4.480469-10-10-10zm-262.671875-300h33.34375c10.136719 0 18.789063 8.359375 22 20h-77.34375c3.210937-11.640625 11.863281-20 22-20zm-219.089844 240c.320313-6.761719.960938-13.429688 1.902344-20h71.488281c5.519532 0 10-4.46875 10-10 0-5.519531-4.480468-10-10-10h-67.609375c22.480469-91.738281 105.410157-160 203.980469-160h52c112.441406 0 204.53125 88.828125 209.761719 200zm400.761719 20v40h-330v-40zm71 80h-472v-20h472l.011719 20s0 0-.011719 0zm0 0"/><path d="m133.644531 240.003906c-5.519531 0-10.003906-4.476562-10.003906-10 0-5.523437 4.472656-10 9.996094-10h.007812c5.523438 0 10 4.476563 10 10 0 5.523438-4.472656 10-10 10zm0 0"/></svg>