<svg height="512pt" viewBox="-106 0 512 512" width="512pt" xmlns="http://www.w3.org/2000/svg"><path d="m240 512h-180c-33.085938 0-60-26.914062-60-60v-146c0-33.085938 26.914062-60 60-60h89.585938c46.214843 0 84.683593-34.515625 89.476562-80.28125.613281-5.867188.9375-11.304688.9375-15.71875 0-49.625-40.375-90-90-90-48.339844 0-87.832031 37.796875-89.910156 86.050781-.0625 1.289063-.089844 2.5625-.089844 3.949219 0 .308594-.003906.621094.011719.925781.019531.445313.007812.890625-.03125 1.332031-1.40625 15.558594-14.25 27.292969-29.878907 27.292969-16.542968 0-30-13.457031-30-30v-4.960937c0-.128906 0-.261719.007813-.394532.214844-5.464843.714844-10.886718 1.488281-16.109374 5.15625-35.265626 22.878906-67.664063 49.898438-91.210938 27.285156-23.777344 62.269531-36.875 98.503906-36.875 54.40625 0 104.660156 29.558594 131.148438 77.136719 12.332031 22.160156 18.851562 47.355469 18.851562 72.863281v302c0 33.085938-26.914062 60-60 60zm-180-246c-22.054688 0-40 17.945312-40 40v146c0 22.054688 17.945312 40 40 40h180c22.054688 0 40-17.945312 40-40v-302c0-22.113281-5.644531-43.945312-16.328125-63.136719-22.957031-41.242187-66.515625-66.863281-113.671875-66.863281-31.402344 0-61.722656 11.347656-85.363281 31.953125-23.421875 20.410156-38.78125 48.480469-43.25 79.042969-.664063 4.476562-1.097657 9.109375-1.285157 13.792968v4.761719c0 5.511719 4.484376 10 10 10 4.964844 0 9.222657-3.746093 9.902344-8.613281-.003906-.316406-.003906-.628906-.003906-.9375 0-1.707031.035156-3.296875.109375-4.855469 1.21875-28.320312 13.191406-54.792969 33.710937-74.496093 20.582032-19.765626 47.636719-30.648438 76.179688-30.648438 60.652344 0 110 49.347656 110 110 0 5.171875-.351562 11.160156-1.046875 17.800781-2.832031 27.011719-15.554687 51.894531-35.828125 70.070313-20.238281 18.140625-46.355469 28.128906-73.539062 28.128906zm0 0"/><path d="m205 305.179688h-110c-19.300781 0-35 15.699218-35 35v76c0 19.300781 15.699219 35 35 35h110c19.300781 0 35-15.699219 35-35v-76c0-19.300782-15.699219-35-35-35zm15 63h-70c-5.519531 0-10 4.480468-10 10 0 5.519531 4.480469 10 10 10h70v28c0 8.269531-6.730469 15-15 15h-110c-8.269531 0-15-6.730469-15-15v-76c0-8.269532 6.730469-15 15-15h110c8.269531 0 15 6.730468 15 15zm0 0"/><path d="m110.019531 388.179688c-5.523437 0-10.003906-4.480469-10.003906-10 0-5.523438 4.472656-10 9.996094-10h.007812c5.523438 0 10 4.476562 10 10 0 5.519531-4.476562 10-10 10zm0 0"/></svg>