<svg height="512pt" viewBox="0 -59 512 511" width="512pt" xmlns="http://www.w3.org/2000/svg"><path d="m442 291.890625h-260c-5.523438 0-10-4.480469-10-10 0-29.398437 12.136719-57.078125 34.175781-77.949219 21.890625-20.722656 50.839844-32.132812 81.515625-32.132812h123.109375c22.71875 0 41.199219 17.953125 41.199219 40.023437v70.058594c0 5.519531-4.476562 10-10 10zm-249.414062-20h239.414062v-60.058594c0-11.042969-9.511719-20.023437-21.199219-20.023437h-123.109375c-25.539062 0-49.605468 9.464844-67.769531 26.65625-15.464844 14.644531-24.964844 33.332031-27.335937 53.425781zm0 0"/><path d="m500.28125 92.289062c-5.132812-5.140624-11.421875-8.710937-18.28125-10.46875v-71.320312c0-5.519531-4.480469-10-10-10s-10 4.480469-10 10v71.320312c-17.230469 4.460938-30 20.148438-30 38.769532v1.710937h-222c-51.890625 0-101.769531 19.269531-140.46875 54.277344-.011719.011719-.019531.011719-.019531.011719-.121094.101562-.230469.199218-.339844.300781-2.472656 2.238281-5 4.640625-7.492187 7.140625-21.628907 21.640625-38.578126 48.167969-49.019532 76.71875-8.398437 22.980469-12.660156 47.101562-12.660156 71.710938 0 .167968 0 .339843.0117188.507812.2695312 32.882812 27.0781252 59.53125 59.9882812 59.53125h392c5.519531 0 10-4.480469 10-10 0-2.808594 4.050781-12.941406 13.421875-23.609375 9.027344-10.289063 18.96875-16.429687 26.578125-16.429687 5.519531 0 10-4.480469 10-10v-211.871094c0-10.691406-4.160156-20.738282-11.71875-28.300782-5.132812-5.140624 7.558594 7.5625 0 0zm-48.28125 28.300782c0-11.039063 8.96875-20.03125 20-20.03125 5.339844 0 10.359375 2.089844 14.140625 5.871094s5.859375 8.808593 5.859375 14.160156v22.78125c-9.277344-11.585938-25.789062-17.988282-40-20.359375zm-376.179688 77.570312c.738282-.730468 1.480469-1.460937 2.210938-2.171875 19.277344 9.183594 27.1875 33.09375 18.625 52.253907-10.285156 23.027343-44.195312 32.351562-62.976562 13.566406 9.550781-23.617188 24.03125-45.519532 42.140624-63.648438.738282-.730468-18.109374 18.128906 0 0zm384.570313 147.539063c-6.21875 7.082031-13.199219 17.261719-16.480469 26.800781h-383.910156c-18.609375 0-34.289062-12.78125-38.738281-30.039062h442.109375c-1.101563 1.140624-2.089844 2.230468-2.980469 3.238281zm-440.128906-23.238281c.71875-13.8125 2.9375-27.421876 6.628906-40.679688 32.648437 21.941406 79.304687 5.421875 90.773437-32.613281 7.488282-24.824219-2.242187-52.429688-23.703124-66.996094 33.21875-25.8125 73.898437-39.871094 116.039062-39.871094h232c27.570312 0 50 22.449219 50 50.050781v130.109376zm0 0"/><path d="m372.003906 252.488281h-80c-5.523437 0-10-4.476562-10-10 0-5.519531 4.476563-10 10-10h80c5.519532 0 10 4.480469 10 10 0 5.523438-4.480468 10-10 10zm0 0"/><path d="m252.023438 252.488281c-5.523438 0-10.007813-4.476562-10.007813-10 0-5.519531 4.472656-10 9.996094-10h.011719c5.523437 0 10 4.480469 10 10 0 5.523438-4.476563 10-10 10zm0 0"/></svg>