<svg height="512pt" viewBox="0 0 512 512" width="512pt" xmlns="http://www.w3.org/2000/svg"><path d="m435.941406 130.332031h-160c-5.519531 0-10-4.476562-10-10 0-5.523437 4.480469-10 10-10h160c5.523438 0 10 4.476563 10 10 0 5.523438-4.476562 10-10 10zm0 0"/><path d="m235.964844 130.332031c-5.523438 0-10.007813-4.476562-10.007813-10 0-5.523437 4.472657-10 9.996094-10h.011719c5.519531 0 10 4.476563 10 10 0 5.523438-4.480469 10-10 10zm0 0"/><path d="m472 50h-292.789062c-2.039063-12.21875-7.8125-23.480469-16.742188-32.421875-11.339844-11.339844-26.398438-17.578125-42.429688-17.578125-29.667968 0-54.390624 21.660156-59.160156 50h-20.878906c-22.058594 0-40 17.941406-40 40v320c0 22.058594 17.941406 40 40 40h20.039062v2c0 33.078125 26.921876 60 60 60 33.082032 0 60-26.921875 60-60v-2h291.960938c22.058594 0 40-17.941406 40-40v-320c0-22.058594-17.941406-40-40-40zm-432 380c-11.03125 0-20-8.96875-20-20v-320c0-11.03125 8.96875-20 20-20h20.039062v360zm120.039062 22c0 22.058594-17.9375 40-40 40-22.058593 0-40-17.941406-40-40v-392c0-22.058594 17.941407-40 40-40 10.679688 0 20.730469 4.160156 28.289063 11.71875 7.550781 7.5625 11.710937 17.609375 11.710937 28.28125zm331.960938-42c0 11.03125-8.96875 20-20 20h-291.960938v-360h291.960938c11.03125 0 20 8.96875 20 20zm0 0"/><path d="m255.882812 230.558594c-16.542968 0-30-13.457032-30-30 0-16.542969 13.457032-30 30-30 16.542969 0 30 13.457031 30 30 0 16.542968-13.457031 30-30 30zm0-40c-5.515624 0-10 4.484375-10 10 0 5.511718 4.484376 10 10 10 5.511719 0 10-4.488282 10-10 0-5.515625-4.488281-10-10-10zm0 0"/><path d="m335.882812 230.558594c-16.542968 0-30-13.457032-30-30 0-16.542969 13.457032-30 30-30 16.542969 0 30 13.457031 30 30 0 16.542968-13.457031 30-30 30zm0-40c-5.515624 0-10 4.484375-10 10 0 5.511718 4.484376 10 10 10 5.511719 0 10-4.488282 10-10 0-5.515625-4.488281-10-10-10zm0 0"/><path d="m415.882812 230.558594c-16.542968 0-30-13.457032-30-30 0-16.542969 13.457032-30 30-30 16.542969 0 30 13.457031 30 30 0 16.542968-13.457031 30-30 30zm0-40c-5.515624 0-10 4.484375-10 10 0 5.511718 4.484376 10 10 10 5.511719 0 10-4.488282 10-10 0-5.515625-4.488281-10-10-10zm0 0"/><path d="m255.882812 310.5625c-16.542968 0-30-13.457031-30-30s13.457032-30 30-30c16.542969 0 30 13.457031 30 30s-13.457031 30-30 30zm0-40c-5.515624 0-10 4.488281-10 10 0 5.515625 4.484376 10 10 10 5.511719 0 10-4.484375 10-10 0-5.511719-4.488281-10-10-10zm0 0"/><path d="m335.882812 310.5625c-16.542968 0-30-13.457031-30-30s13.457032-30 30-30c16.542969 0 30 13.457031 30 30s-13.457031 30-30 30zm0-40c-5.515624 0-10 4.488281-10 10 0 5.515625 4.484376 10 10 10 5.511719 0 10-4.484375 10-10 0-5.511719-4.488281-10-10-10zm0 0"/><path d="m415.882812 310.5625c-16.542968 0-30-13.457031-30-30s13.457032-30 30-30c16.542969 0 30 13.457031 30 30s-13.457031 30-30 30zm0-40c-5.515624 0-10 4.488281-10 10 0 5.515625 4.484376 10 10 10 5.511719 0 10-4.484375 10-10 0-5.511719-4.488281-10-10-10zm0 0"/><path d="m255.882812 390.554688c-16.542968 0-30-13.457032-30-30 0-16.542969 13.457032-30 30-30 16.542969 0 30 13.457031 30 30 0 16.542968-13.457031 30-30 30zm0-40c-5.515624 0-10 4.484374-10 10 0 5.515624 4.484376 10 10 10 5.511719 0 10-4.484376 10-10 0-5.515626-4.488281-10-10-10zm0 0"/><path d="m335.882812 390.554688c-16.542968 0-30-13.457032-30-30 0-16.542969 13.457032-30 30-30 16.542969 0 30 13.457031 30 30 0 16.542968-13.457031 30-30 30zm0-40c-5.515624 0-10 4.484374-10 10 0 5.515624 4.484376 10 10 10 5.511719 0 10-4.484376 10-10 0-5.515626-4.488281-10-10-10zm0 0"/><path d="m415.882812 390.554688c-16.542968 0-30-13.457032-30-30 0-16.542969 13.457032-30 30-30 16.542969 0 30 13.457031 30 30 0 16.542968-13.457031 30-30 30zm0-40c-5.515624 0-10 4.484374-10 10 0 5.515624 4.484376 10 10 10 5.511719 0 10-4.484376 10-10 0-5.515626-4.488281-10-10-10zm0 0"/></svg>