<svg height="512pt" viewBox="-6 0 512 512" width="512pt" xmlns="http://www.w3.org/2000/svg"><path d="m462.308594 31.769531c-22.980469-20.191406-52.988282-31.769531-82.308594-31.769531-66.171875 0-120 53.820312-120 119.980469v2.308593c0 18.609376 5.738281 32.921876 11.300781 46.761719 3.21875 8.039063 6.558594 16.347657 8.828125 25.667969 1.042969 4.28125 2.011719 8.710938 2.902344 13.261719 2.859375 14.589843 4.898438 30.429687 5.980469 46.519531 2.078125 30.78125.558593 60.230469-4.28125 82.929688-4.210938 19.800781-5.761719 44.21875-4.730469 74.660156.039062 27.058594 8.460938 51.878906 23.730469 69.910156 16.320312 19.28125 39.859375 29.898438 66.269531 29.898438 55.738281 0 101.628906-43.558594 104.558594-99.1875l16.75-199.070313s0 0 0-.011719l8.652344-102.808594c.027343-.28125.039062-.558593.039062-.839843 0-29.082031-13.390625-56.859375-37.691406-78.210938zm-172.449219 129.832031c-5.289063-13.179687-9.859375-24.5625-9.859375-39.3125v-2.308593c0-55.128907 44.859375-99.980469 100-99.980469 24.539062 0 49.730469 9.769531 69.109375 26.800781 19.800781 17.390625 30.761719 39.667969 30.890625 62.769531l-7.160156 85.058594c-9.429688-6.96875-22.460938-17.140625-35.429688-28.96875-30.570312-27.890625-47.410156-52.980468-47.410156-70.640625 0-5.519531-4.480469-10-10-10s-10 4.480469-10 10c0 18.679688-14.960938 40.351563-32.789062 59.332031-12.652344 13.457032-26.75 25.570313-37.992188 34.296876-2.558594-10.128907-6.019531-18.726563-9.359375-27.046876zm164.761719 249.589844c-.011719.109375-.019532.21875-.019532.328125-2.300781 45.070313-39.460937 80.378907-84.601562 80.378907-20.730469 0-38.371094-7.886719-51.011719-22.820313-12.238281-14.46875-18.988281-34.769531-18.988281-57.15625 0-.121094 0-.230469-.011719-.351563-.976562-28.859374.421875-51.75 4.300781-69.96875 5.222657-24.460937 6.871094-55.871093 4.679688-88.453124-.988281-14.71875-2.75-29.269532-5.179688-42.957032 7.972657-5.863281 23.699219-18.019531 39.601563-33.5625 17-16.628906 29.390625-32.410156 37.097656-47.21875 8.890625 15.691406 23.402344 32.738282 43.441407 51.019532 19.21875 17.539062 38.230468 31.351562 46.960937 37.441406zm0 0"/><path d="m427.152344 392.859375c-.277344 0-.554688-.011719-.835938-.035156-5.503906-.457031-9.597656-5.289063-9.140625-10.792969l6.601563-79.710938c.457031-5.503906 5.289062-9.59375 10.792968-9.140624 5.503907.457031 9.59375 5.289062 9.140626 10.792968l-6.605469 79.710938c-.429688 5.222656-4.804688 9.175781-9.953125 9.175781zm0 0"/><path d="m423.859375 432.710938c-5.523437 0-10.003906-4.476563-10.003906-10 0-5.523438 4.46875-10 9.992187-10h.011719c5.523437 0 10 4.476562 10 10 0 5.523437-4.476563 10-10 10zm0 0"/><path d="m120 .101562c-29.320312 0-59.328125 11.578126-82.308594 31.769532-24.300781 21.347656-37.691406 49.128906-37.691406 78.207031 0 .28125.0117188.5625.0390625.84375l8.6523435 102.796875c-.011718.019531 0 .050781.007813.082031l16.742187 199.007813c2.929688 55.632812 48.820313 99.191406 104.558594 99.191406 26.410156 0 49.949219-10.621094 66.269531-29.890625 15.261719-18.03125 23.691407-42.839844 23.730469-69.890625.980469-24.75-.578125-49.71875-4.648438-74.238281-.023437-.152344-.050781-.300781-.082031-.449219-4.839843-22.691406-6.359375-52.152344-4.28125-82.929688 1.082031-16.089843 3.121094-31.929687 5.980469-46.523437.042969-.1875.082031-.367187.109375-.558594.863281-4.347656 1.792969-8.589843 2.792969-12.691406 2.269531-9.316406 5.609375-17.636719 8.828125-25.679687 5.5625-13.828126 11.300781-28.136719 11.300781-46.757813v-2.3125c0-66.15625-53.828125-119.976563-120-119.976563zm80.011719 411.519532c-.011719.128906-.011719.269531-.011719.398437 0 22.402344-6.75 42.699219-18.988281 57.160157-12.640625 14.929687-30.28125 22.820312-51.011719 22.820312-45.140625 0-82.300781-35.300781-84.601562-80.371094 0-.109375-.007813-.21875-.019532-.328125l-16.269531-193.320312c8.730469-6.089844 27.742187-19.902344 46.960937-37.441407 20.039063-18.277343 34.550782-35.339843 43.441407-51.027343 7.707031 14.808593 20.097656 30.589843 37.097656 47.21875 15.902344 15.558593 31.640625 27.710937 39.609375 33.558593-2.4375 13.691407-4.199219 28.242188-5.1875 42.960938-2.191406 32.480469-.550781 63.800781 4.628906 88.21875 3.820313 23.171875 5.289063 46.769531 4.351563 70.152344zm19.988281-289.230469c0 14.75-4.570312 26.128906-9.859375 39.308594-3.339844 8.332031-6.800781 16.921875-9.359375 27.050781-27.089844-21.039062-70.78125-61.699219-70.78125-93.621094 0-5.527344-4.480469-10-10-10s-10 4.472656-10 10c0 18.632813-17.480469 41.570313-38.328125 62.070313-14.832031 14.582031-31.363281 27.929687-44.511719 37.621093l-7.160156-85.140624c.128906-23.109376 11.089844-45.390626 30.890625-62.78125 19.378906-17.027344 44.570313-26.796876 69.109375-26.796876 55.140625 0 100 44.847657 100 99.976563zm0 0"/></svg>