<svg height="511pt" viewBox="0 -1 511.99943 511" width="511pt" xmlns="http://www.w3.org/2000/svg"><path d="m500.132812 375.566406-34.207031-34.234375c8.734375-78.339843 8.722657-157.734375-.050781-236.125l33.867188-33.894531c14.03125-14.050781 16.035156-36.902344 4.636718-53.171875-12.609375-18.003906-37.988281-23.023437-56.457031-11.0625-8.554687 5.539063-15.621094 14.300781-22.761719 21.449219-6.84375 6.847656-13.691406 13.699218-20.539062 20.550781-34.078125-5.652344-68.0625-11.175781-102.589844-13.398437-54.332031-3.496094-108.90625-.59375-162.617188 8.238281-10.675781 1.753906-21.34375 3.539062-32.015624 5.3125-7.824219-7.835938-15.652344-15.667969-23.476563-23.503907-9.3125-9.320312-18.050781-20.054687-31.261719-23.738281-23.652344-6.589843-48.453125 9.410157-52.175781 33.667969-2.757813 17.953125 6.65625 30.667969 18.476563 42.492188 9.316406 9.320312 18.628906 18.640624 27.945312 27.960937-9.105469 78.230469-9.453125 157.601563-1.039062 236.09375l-33.347657 33.363281c-28.496093 28.539063-1.476562 78.488282 38.117188 69.917969 19.4375-4.207031 34.25-24.914063 47.667969-38.351563 14.316406 2.382813 28.625 4.808594 42.953124 7.128907.398438 12.441406 1.25 24.933593 2.511719 37.296875l-14.988281 15c-14.621094 14.644531-6.113281 40.609375 14.414062 43.660156 15.160157 2.25 24.222657-9.453125 33.742188-18.984375 25.152344 4.167969 50.191406 7.621094 75.765625 7.605469 26.40625-.015625 52.234375-3.671875 78.15625-8.265625 4.671875 4.679687 9.132813 9.96875 14.285156 14.128906 11.664063 9.425781 29.398438 6.855469 37.75-5.660156 13.199219-19.78125-5.90625-35.164063-18.636719-47.90625 1.320313-12.359375 2.222657-24.863281 2.671876-37.304688 15.382812-2.480469 30.703124-5.347656 46.042968-8.058593 12.917969 12.929687 27.386719 33.160156 45.425782 38.78125 40.429687 12.597656 71.59375-39.0625 41.734374-68.988282zm-134.621093 105.136719c3.992187 3.992187.128906 10.558594-5.148438 9.605469-2.453125-.441406-3.988281-2.558594-5.691406-4.203125-4.390625-4.238281-8.367187-9.21875-13.078125-13.09375-8.769531-7.21875-27.277344.324219-37.621094 1.902343-29.195312 4.464844-58.949218 5.125-88.316406 1.929688-8.699219-.945312-17.332031-2.328125-25.960938-3.765625-5.21875-.867187-11.589843-3.042969-16.945312-2.53125-6.5.625-12.023438 8.609375-16.289062 12.882813-1.683594 1.683593-3.425782 4.058593-5.40625 5.414062-5.695313 3.894531-13.589844-2.660156-8.105469-8.140625 6.011719-6.019531 13.027343-11.753906 18.363281-18.382813 5.988281-7.449218 1.441406-21.816406.839844-30.773437-.835938-12.410156-1.226563-24.84375-1.167969-37.28125.058594-12.300781.554687-24.59375 1.488281-36.855469.585938-7.707031 5.089844-21.925781.769532-29.171875-4.820313-8.09375-14.71875-12.867187-20.132813-20.515625-4.421875-6.242187 1.128906-12.902344 7.820313-8.410156 3.644531 2.441406 6.894531 6.902344 9.96875 9.980469 3.183593 3.183593 6.226562 6.878906 9.71875 9.726562 5.238281 4.273438 9.878906 2.992188 15.925781 1.984375 41.589843-6.933594 82.683593-8.648437 124.460937-1.839844 5.523438.898438 11.1875 2.386719 16.761719 2.789063 6.203125.445313 9.039063-2.296875 12.992187-6.257813 4.574219-4.582031 9.027344-9.339843 13.75-13.769531 1.34375-1.257812 2.757813-3.28125 4.558594-3.953125 5.65625-2.105468 10.648438 4.976563 6.253906 9.390625-6.078124 6.078125-13.171874 11.855469-18.546874 18.550781-6.199219 7.71875-1.507813 21.601563-.84375 30.761719.894531 12.335938 1.34375 24.707031 1.351562 37.074219.007812 12.429688-.433594 24.855469-1.316406 37.253906-.644532 9.039063-5.394532 23.273438.78125 30.917969 5.464844 6.769531 12.613281 12.625 18.765625 18.78125zm120.453125-60.578125c-21.363282 21.457031-47.171875-17.742188-60.921875-30.59375-7.292969-6.816406-15.675781-3.441406-24.578125-1.867188-11.050782 1.953126-22.09375 3.992188-33.164063 5.847657-.050781-18.960938-1.050781-37.910157-3.070312-56.761719l15.246093-15.25c17.113282-17.15625 2.03125-47.226562-22.035156-43.648438-12.808594 1.90625-22.152344 15.003907-30.785156 23.644532-24.558594-4.078125-49.015625-7.183594-73.972656-7.070313-24.019532.105469-47.566406 3.214844-71.203125 7.152344-13.589844-13.601563-31.851563-35.574219-51.941407-17.34375-11.277343 10.230469-10.628906 26.800781-.671874 37.550781 4.921874 5.316406 10.277343 10.289063 15.402343 15.417969-2.089843 18.851563-3.144531 37.78125-3.304687 56.746094-11.617188-1.90625-23.226563-3.859375-34.84375-5.789063-4.21875-.703125-10.058594-2.621094-14.316406-1.261718-4.296876 1.371093-7.90625 6.335937-10.96875 9.402343-8.335938 8.351563-16.304688 18.164063-25.613282 25.460938-20.652344 16.1875-47.105468-13.480469-28.550781-32.050781 6.320313-6.320313 12.640625-12.644532 18.957031-18.964844 5.902344-5.902344 14.898438-12.257813 19.183594-19.550782 2.382812-4.058593 1.214844-8.558593.75-12.988281-.691406-6.570312-1.320312-13.148437-1.886719-19.730469-1.136719-13.164062-2.019531-26.347656-2.652343-39.542968-1.265626-26.375-1.535157-52.804688-.800782-79.199219.699219-25.277344 2.324219-50.527344 4.859375-75.6875.746094-7.390625 4.949219-19.839844.796875-26.890625-1.480468-2.519531-4.285156-4.652344-6.304687-6.671875-8.570313-8.578125-17.140625-17.15625-25.710938-25.734375-7.742187-7.753906-16.144531-15.242188-13.324219-27.605469 4.144532-18.167969 25.09375-20.699219 37.199219-9.304687 7.535157 7.09375 14.660157 14.675781 21.972657 21.996094 5.710937 5.714843 11.890624 14.5625 19.042968 18.648437 7.679688 4.386719 23.214844-1.402344 31.105469-2.710937 83.542969-13.882813 166.070313-14.480469 249.675781-.589844 9.59375 1.59375 27.140625 8.355468 35.601563 1.679687 7.890625-6.230469 14.714843-14.726562 21.808593-21.820312 6.882813-6.890625 13.714844-16.066407 22.050782-21.3125 21.144531-13.308594 44.089844 15.933593 26.578125 33.4375-10.898438 10.910156-21.796875 21.816406-32.691407 32.726562-1.429687 1.429688-3.117187 2.816407-4.390624 4.390625-5.0625 6.261719-2.359376 14.171875-1.589844 21.585938 2.101562 20.308594 3.605468 40.679687 4.511718 61.078125 1.84375 41.34375 1.234376 82.792969-1.835937 124.066406-.734375 9.898437-1.613281 19.792969-2.632813 29.667969-.746093 7.246094-3.4375 15.261718 1.457032 21.425781 4.046875 5.097656 9.503906 9.515625 14.097656 14.113281 12.632812 12.640625 43.070312 34.304688 23.464844 53.902344-4.050782 4.070312 4.0625-4.0625 0 0zm0 0"/><path d="m122.664062 135.6875c-4.804687 0-9.046874-3.46875-9.859374-8.363281-.90625-5.449219 2.777343-10.597657 8.226562-11.503907 86.785156-14.433593 163.292969-15.742187 233.894531-4 5.449219.90625 9.136719 6.054688 8.226563 11.503907-.90625 5.449219-6.054688 9.136719-11.511719 8.226562-68.390625-11.375-142.75-10.066406-227.324219 4-.554687.09375-1.109375.136719-1.652344.136719zm0 0"/><path d="m391.550781 137.6875c-5.523437 0-10.007812-4.480469-10.007812-10.003906 0-5.523438 4.472656-10 10-10h.011719c5.523437 0 10.003906 4.476562 10.003906 10 0 5.523437-4.480469 10.003906-10.007813 10.003906zm0 0"/></svg>