<svg height="512pt" viewBox="0 0 512 512" width="512pt" xmlns="http://www.w3.org/2000/svg"><path d="m196.019531 512c-5.523437 0-10.003906-4.476562-10.003906-10s4.472656-10 9.996094-10h.007812c5.523438 0 10 4.476562 10 10s-4.476562 10-10 10zm0 0"/><path d="m266 462v30h50c5.519531 0 10 4.480469 10 10s-4.480469 10-10 10h-80c-5.519531 0-10-4.480469-10-10s4.480469-10 10-10h10v-30c-64.628906-2.460938-125.03125-28.808594-171.019531-74.820312-48.351563-48.371094-74.980469-112.679688-74.980469-181.089844 0-5.519532 4.480469-10 10-10s10 4.480468 10 10c0 63.070312 24.550781 122.359375 69.121094 166.949218 44.578125 44.601563 103.839844 69.160157 166.878906 69.160157s122.300781-24.558594 166.878906-69.160157c44.570313-44.589843 69.121094-103.878906 69.121094-166.949218 0-5.519532 4.480469-10 10-10s10 4.480468 10 10c0 68.410156-26.628906 132.71875-74.980469 181.089844-45.988281 46.011718-106.390625 72.359374-171.019531 74.820312zm0 0"/><path d="m256 412.175781c-113.589844 0-206-92.449219-206-206.085937 0-113.640625 92.410156-206.089844 206-206.089844s206 92.449219 206 206.089844c0 113.636718-92.410156 206.085937-206 206.085937zm0-392.175781c-102.5625 0-186 83.480469-186 186.089844 0 102.605468 83.4375 186.085937 186 186.085937s186-83.480469 186-186.085937c0-102.609375-83.4375-186.089844-186-186.089844zm0 0"/><path d="m256 362.152344c-86.019531 0-156-70.011719-156-156.0625 0-86.054688 69.980469-156.066406 156-156.066406s156 70.007812 156 156.0625c0 86.054687-69.980469 156.066406-156 156.066406zm0-292.128906c-74.992188 0-136 61.039062-136 136.0625 0 75.027343 61.007812 136.066406 136 136.066406s136-61.039063 136-136.066406c0-75.023438-61.007812-136.0625-136-136.0625zm0 0"/><path d="m256 312.128906c-5.523438 0-10-4.476562-10-10 0-5.519531 4.476562-10 10-10 47.421875 0 86-38.597656 86-86.039062 0-5.523438 4.476562-10 10-10s10 4.476562 10 10c0 58.46875-47.550781 106.039062-106 106.039062zm0 0"/></svg>