<svg height="512pt" viewBox="-56 0 512 512" width="512pt" xmlns="http://www.w3.org/2000/svg"><path d="m400.96875 310.058594c0-64.109375-56.59375-117.730469-119.96875-117.730469h-40v-82.40625c0-29.371094-11.441406-56.980469-32.21875-77.730469-20.769531-20.761718-48.390625-32.191406-77.78125-32.191406-60.648438 0-110 49.308594-110 109.921875v300.777344l-20.738281 89.03125c-.691407 2.96875.007812 6.097656 1.90625 8.488281 1.890625 2.390625 4.78125 3.78125 7.832031 3.78125h101c3.03125 0 5.898438-1.378906 7.800781-3.738281 1.898438-2.371094 2.617188-5.472657 1.960938-8.433594l-19.761719-89.066406v-300.839844c0-16.53125 13.460938-29.972656 30-29.972656 8.011719 0 15.539062 3.121093 21.210938 8.78125 5.667968 5.667969 8.789062 13.191406 8.789062 21.191406v290.726563c-12.769531 12.160156-20 28.953124-20 46.761718 0 35.621094 28.929688 64.589844 64.5 64.589844 17.328125 0 33.789062-6.941406 45.851562-19.179688h87.648438v9.179688c0 5.519531 4.480469 10 10 10s10-4.480469 10-10v-9.179688h32c5.519531 0 10-4.480468 10-10v-170.492187c0-.757813-.011719-1.519531-.03125-2.269531 0-.417969.019531.75 0 0 0-64.109375.019531.75 0 0zm-109.96875-97.230469c47.347656 3.71875 84.109375 43.742187 89.519531 89.691406h-39.519531c-27.570312 0-50-22.429687-50-50zm-268.398438 279.171875 16.339844-70.160156h44.039063l15.558593 70.160156zm108.398438-432.050781c-27.570312 0-50 22.421875-50 49.972656v291.917969h-40v-291.917969c0-49.582031 40.371094-89.921875 90-89.921875 24.050781 0 46.648438 9.351562 63.640625 26.339844 17 16.96875 26.359375 39.550781 26.359375 63.582031v81.917969h-40v-81.917969c0-13.351563-5.199219-25.890625-14.648438-35.332031-9.453124-9.441406-22-14.640625-35.351562-14.640625zm108.351562 416.390625c-8.460937 9.949218-20.800781 15.660156-33.851562 15.660156-24.539062 0-44.5-20-44.5-44.589844 0-13.429687 5.960938-26.019531 16.351562-34.539062 7.898438-6.492188 17.886719-10.0625 28.148438-10.0625 24.539062 0 44.5 20.011718 44.5 44.601562 0 13.460938-6.566406 21.367188-13.273438 32.015625 1.171876-1.859375 2.992188-3.558593 4.445313-5.21875-.617187.703125-1.214844 1.421875-1.820313 2.132813-8.460937 9.949218 6.867188-8.050782 0 0zm141.648438-3.519532h-22v-50.960937c0-5.519531-4.480469-10-10-10s-10 4.480469-10 10v50.960937h-74.199219c3.425781-7.996093 5.199219-16.710937 5.199219-25.410156 0-35.621094-28.929688-64.601562-64.5-64.601562-8.507812 0-16.582031 1.875-24.5 4.839844v-175.320313h90v40.191406c0 38.601563 31.398438 70 70 70h40zm0 0"/><path d="m349.019531 391.792969c-5.523437 0-10.003906-4.476563-10.003906-10 0-5.523438 4.472656-10 9.992187-10h.011719c5.523438 0 10 4.476562 10 10 0 5.523437-4.476562 10-10 10zm0 0"/></svg>