<svg height="512pt" viewBox="-41 0 512 512" width="512pt" xmlns="http://www.w3.org/2000/svg"><path d="m410 0h-390c-11.03125 0-20 8.96875-20 20v472c0 11.03125 8.96875 20 20 20h390c11.03125 0 20-8.96875 20-20v-472c0-11.03125-8.96875-20-20-20zm-160.730469 492h-79.269531v-183c0-5.519531-4.480469-10-10-10s-10 4.480469-10 10v183h-80.730469v-332h80.730469v70c0 5.519531 4.480469 10 10 10s10-4.480469 10-10v-70h79.269531zm160.730469 0h-140.730469v-342c0-5.519531-4.480469-10-10-10h-200c-5.53125 0-10 4.480469-10 10v342h-29.269531v-472h390zm0 0"/><path d="m260 50h-200c-5.519531 0-10 4.480469-10 10v40c0 5.519531 4.480469 10 10 10h200c5.519531 0 10-4.480469 10-10v-40c0-5.519531-4.480469-10-10-10zm-110 40h-80v-20h80zm100 0h-80v-20h80zm0 0"/><path d="m369 311h-57.734375c-3.574219 0-6.875-1.90625-8.660156-5-1.789063-3.09375-1.789063-6.90625 0-10l28.867187-50c1.785156-3.09375 5.085938-5 8.660156-5 3.570313 0 6.875 1.90625 8.660157 5l28.867187 50c1.785156 3.09375 1.785156 6.90625 0 10s-5.085937 5-8.660156 5zm-40.414062-20h23.09375l-11.546876-20zm0 0"/><path d="m340.132812 411c-3.574218 0-6.875-1.90625-8.660156-5l-28.867187-50c-1.789063-3.09375-1.789063-6.90625 0-10 1.785156-3.09375 5.085937-5 8.660156-5h57.734375c3.574219 0 6.875 1.90625 8.660156 5s1.785156 6.90625 0 10l-28.867187 50c-1.785157 3.09375-5.089844 5-8.660157 5zm-11.546874-50 11.546874 20 11.546876-20zm0 0"/><path d="m160.019531 279c-5.523437 0-10.003906-4.476562-10.003906-10s4.472656-10 9.996094-10h.007812c5.523438 0 10 4.476562 10 10s-4.476562 10-10 10zm0 0"/></svg>