<svg height="512pt" viewBox="0 -51 512 512" width="512pt" xmlns="http://www.w3.org/2000/svg"><path d="m472 169h-80v-99c0-38.601562-31.398438-70-70-70h-132c-38.601562 0-70 31.398438-70 70v99h-80c-22.058594 0-40 17.941406-40 40s17.941406 40 40 40h20v50c0 34.5 26.019531 64.144531 60 69.28125v20.71875c0 11.03125 8.96875 20 20 20h20c11.03125 0 20-8.96875 20-20v-20h152v20c0 11.03125 8.96875 20 20 20h20c11.03125 0 20-8.96875 20-20v-20.71875c23.359375-3.53125 43.539062-18.566406 53.570312-39.992188.441407-.9375.851563-1.890624 1.238282-2.847656.179687-.441406.363281-.882812.53125-1.332031.050781-.097656.082031-.210937.121094-.308594.160156-.421875.320312-.839843.46875-1.269531.179687-.492188.351562-.980469.511718-1.480469.25-.75.488282-1.511719.707032-2.269531.230468-.761719.441406-1.542969.640624-2.3125.261719-1 .5-2.019531.710938-3.039062.089844-.398438.171875-.800782.238281-1.199219.082031-.378907.152344-.769531.210938-1.152344.089843-.476563.171875-.957031.242187-1.429687.148438-1 .289063-2 .386719-3.007813.042969-.289063.070313-.570313.09375-.859375.027344-.210938.039063-.429688.058594-.640625.03125-.332031.058593-.671875.089843-1 .007813-.199219.019532-.402344.03125-.601563.027344-.417968.046876-.828124.070313-1.257812.027344-.542969.046875-1.089844.058594-1.632812.007812-.546876.019531-1.097657.019531-1.648438v-50h20c22.058594 0 40-17.941406 40-40s-17.941406-40-40-40zm-352 179c-19.535156-4.148438-34.859375-19.484375-39-39h.011719c-.660157-3.230469-1.011719-6.570312-1.011719-10v-50h40zm0-119h-80c-11.03125 0-20-8.96875-20-20s8.96875-20 20-20h80zm20-159c0-27.570312 22.429688-50 50-50h56v70c0 5.519531 4.480469 10 10 10s10-4.480469 10-10v-70h56c27.570312 0 50 22.429688 50 50v155.558594c-37.75-10.667969-76.710938-16.078125-116-16.078125s-78.25 5.410156-116 16.078125zm0 176.390625c37.671875-11.230469 76.648438-16.910156 116-16.910156s78.328125 5.679687 116 16.910156v42.609375h-232zm20 142.609375h-20v-20h20l.011719 20s0 0-.011719 0zm-20-40v-40h232v40zm232 40h-20v-20h20l.011719 20s0 0-.011719 0zm60-90c0 3.429688-.351562 6.769531-1.011719 10h.011719c-4.132812 19.484375-19.511719 34.863281-39 39v-99h40zm40-70h-80v-40h80c11.03125 0 20 8.96875 20 20s-8.96875 20-20 20zm0 0"/><path d="m256.019531 140c-5.523437 0-10.003906-4.476562-10.003906-10s4.472656-10 9.996094-10h.007812c5.523438 0 10 4.476562 10 10s-4.476562 10-10 10zm0 0"/></svg>