<svg height="512pt" viewBox="0 -76 512 512" width="512pt" xmlns="http://www.w3.org/2000/svg"><path d="m256 305.074219c-55.140625 0-100-44.859375-100-100s44.859375-100 100-100 100 44.859375 100 100-44.859375 100-100 100zm0-180c-44.113281 0-80 35.890625-80 80 0 44.113281 35.886719 80 80 80s80-35.886719 80-80c0-44.109375-35.886719-80-80-80zm0 0"/><path d="m148.605469 130.148438h-50c-5.523438 0-10-4.476563-10-10 0-5.519532 4.476562-10 10-10h50c5.519531 0 10 4.480468 10 10 0 5.523437-4.476563 10-10 10zm0 0"/><path d="m64.019531 130.148438c-5.523437 0-10.003906-4.476563-10.003906-10 0-5.519532 4.472656-10 9.996094-10h.007812c5.523438 0 10 4.480468 10 10 0 5.523437-4.476562 10-10 10zm0 0"/><path d="m472 60h-108.449219l-11.921875-41.679688c-1-10.398437-11.269531-18.320312-24.199218-18.320312h-142.859376c-12.929687 0-23.199218 7.921875-24.199218 18.320312l-11.921875 41.679688h-24.527344l-.191406-23.328125c0-9.351563-6.210938-16.671875-14.128907-16.671875h-41.203124c-7.917969 0-14.128907 7.320312-14.128907 16.578125l-.191406 23.421875h-14.078125c-22.058594 0-40 17.941406-40 40v220c0 22.058594 17.941406 40 40 40h432c22.058594 0 40-17.941406 40-40v-220c0-22.058594-17.941406-40-40-40zm-292.101562-37.25c.160156-.539062.261718-1.089844.332031-1.648438.667969-.472656 2.191406-1.101562 4.339843-1.101562h142.859376c2.148437 0 3.671874.628906 4.339843 1.101562.070313.558594.171875 1.109376.332031 1.648438l10.636719 37.25h-173.476562zm-105.648438 17.25h29.5l.171875 20h-29.84375zm417.75 280c0 11.03125-8.96875 20-20 20h-432c-11.03125 0-20-8.96875-20-20v-220c0-11.03125 8.96875-20 20-20h432c11.03125 0 20 8.96875 20 20zm0 0"/><path d="m256 265.074219c-33.085938 0-60-26.914063-60-60 0-33.082031 26.914062-60 60-60s60 26.917969 60 60c0 33.085937-26.914062 60-60 60zm0-100c-22.054688 0-40 17.945312-40 40 0 22.058593 17.945312 40 40 40s40-17.941407 40-40c0-22.054688-17.945312-40-40-40zm0 0"/></svg>