<svg height="512pt" viewBox="0 0 512 512" width="512pt" xmlns="http://www.w3.org/2000/svg"><path d="m256 512c-68.378906 0-132.667969-26.628906-181.019531-74.980469-48.351563-48.351562-74.980469-112.640625-74.980469-181.019531s26.628906-132.667969 74.980469-181.019531c48.351562-48.351563 112.640625-74.980469 181.019531-74.980469s132.667969 26.628906 181.019531 74.980469c48.351563 48.351562 74.980469 112.640625 74.980469 181.019531s-26.628906 132.667969-74.980469 181.019531c-48.351562 48.351563-112.640625 74.980469-181.019531 74.980469zm0-492c-63.039062 0-122.304688 24.546875-166.878906 69.121094-44.574219 44.574218-69.121094 103.839844-69.121094 166.878906s24.546875 122.304688 69.121094 166.878906c44.574218 44.574219 103.839844 69.121094 166.878906 69.121094s122.304688-24.546875 166.878906-69.121094c44.574219-44.574218 69.121094-103.839844 69.121094-166.878906s-24.546875-122.304688-69.121094-166.878906c-44.574218-44.574219-103.839844-69.121094-166.878906-69.121094zm0 0"/><path d="m256 412c-86.019531 0-156-69.980469-156-156s69.980469-156 156-156 156 69.980469 156 156-69.980469 156-156 156zm0-292c-74.988281 0-136 61.011719-136 136s61.011719 136 136 136 136-61.011719 136-136-61.011719-136-136-136zm0 0"/><path d="m60 266c-5.523438 0-10-4.476562-10-10 0-113.589844 92.410156-206 206-206 5.523438 0 10 4.476562 10 10s-4.476562 10-10 10c-102.5625 0-186 83.4375-186 186 0 5.523438-4.476562 10-10 10zm0 0"/><path d="m286.191406 250.050781c11.457032-9.171875 18.808594-23.269531 18.808594-39.050781 0-27.570312-22.429688-50-50-50s-50 22.429688-50 50c0 16.210938 7.75 30.640625 19.738281 39.769531-14.339843 9.941407-23.738281 26.5-23.738281 45.230469 0 30.328125 24.671875 55 55 55s55-24.671875 55-55c0-19.191406-9.871094-36.109375-24.808594-45.949219zm-31.191406-69.050781c16.539062 0 30 13.460938 30 30s-13.460938 30-30 30-30-13.460938-30-30 13.460938-30 30-30zm1 150c-19.300781 0-35-15.699219-35-35s15.699219-35 35-35 35 15.699219 35 35-15.699219 35-35 35zm0 0"/><path d="m64.019531 306c-5.523437 0-10.003906-4.476562-10.003906-10s4.472656-10 9.996094-10h.007812c5.523438 0 10 4.476562 10 10s-4.476562 10-10 10zm0 0"/></svg>