<svg height="512pt" viewBox="0 0 512 512" width="512pt" xmlns="http://www.w3.org/2000/svg"><path d="m377 240.914062c-5.523438 0-10-4.476562-10-10v-40.011718c0-5.523438 4.476562-10 10-10s10 4.476562 10 10v40.011718c0 5.523438-4.476562 10-10 10zm0 0"/><path d="m377.019531 280.925781c-5.523437 0-10.003906-4.476562-10.003906-10 0-5.519531 4.472656-10 9.996094-10h.007812c5.523438 0 10 4.480469 10 10 0 5.523438-4.476562 10-10 10zm0 0"/><path d="m416.019531 200.902344c-5.523437 0-10.003906-4.480469-10.003906-10 0-5.523438 4.472656-10 9.996094-10h.007812c5.523438 0 10 4.476562 10 10 0 5.519531-4.476562 10-10 10zm0 0"/><path d="m472 512h-432c-22.054688 0-40-17.945312-40-40 0-22.074219 17.945312-40.019531 40-40.019531h432c22.054688 0 40 17.945312 40 40 0 22.074219-17.945312 40.019531-40 40.019531zm-432-60.019531c-11.027344 0-20 8.972656-20 20 0 11.046875 8.972656 20.019531 20 20.019531h432c11.027344 0 20-8.972656 20-20 0-11.046875-8.972656-20.019531-20-20.019531zm0 0"/><path d="m452 372.960938h-16.839844c-4.769531-28.351563-29.488281-50.011719-59.160156-50.011719s-54.390625 21.660156-59.160156 50.011719h-20.839844v-263.011719c0-16.527344 13.460938-29.980469 30-29.980469 8.011719 0 15.539062 3.121094 21.210938 8.792969 5.667968 5.660156 8.789062 13.1875 8.789062 21.1875v40.941406c0 5.519531 4.480469 10 10 10h60c5.519531 0 10-4.480469 10-10v-40.941406c0-29.378907-11.441406-56.988281-32.21875-77.75-20.761719-20.757813-48.390625-32.199219-77.78125-32.199219-60.648438 0-110 49.320312-110 109.949219v263.011719h-20.839844c-4.769531-28.351563-29.488281-50.011719-59.160156-50.011719s-54.390625 21.660156-59.160156 50.011719h-16.839844c-5.519531 0-10 4.480468-10 10 0 5.519531 4.480469 10 10 10h392c5.519531 0 10-4.480469 10-10 0-5.519532-4.480469-10-10-10zm-354.738281 0c4.449219-17.242188 20.128906-30.011719 38.738281-30.011719s34.289062 12.769531 38.738281 30.011719zm178.738281-263.011719v263.011719h-40v-263.011719c0-49.597657 40.371094-89.949219 90-89.949219 24.050781 0 46.648438 9.359375 63.640625 26.351562 17 16.976563 26.359375 39.558594 26.359375 63.597657v30.941406h-40v-30.941406c0-13.347657-5.199219-25.898438-14.648438-35.339844-9.453124-9.4375-22-14.640625-35.351562-14.640625-27.570312 0-50 22.421875-50 49.980469zm61.261719 263.011719c4.449219-17.242188 20.128906-30.011719 38.738281-30.011719s34.289062 12.769531 38.738281 30.011719zm0 0"/></svg>