<svg height="512pt" viewBox="0 -49 512 511" width="512pt" xmlns="http://www.w3.org/2000/svg"><path d="m472 .5h-432c-22.054688 0-40 17.945312-40 40v332c0 22.054688 17.945312 40 40 40h432c22.054688 0 40-17.945312 40-40v-332c0-22.054688-17.945312-40-40-40zm0 392h-432c-11.027344 0-20-8.972656-20-20v-312h70c5.523438 0 10-4.476562 10-10s-4.476562-10-10-10h-70c0-11.027344 8.972656-20 20-20h432c11.027344 0 20 8.972656 20 20v312h-70c-5.523438 0-10 4.476562-10 10s4.476562 10 10 10h70c0 11.027344-8.972656 20-20 20zm0 0"/><path d="m286.898438 197c2.074218 0 4.136718-.644531 5.878906-1.910156 3.082031-2.238282 4.625-6.027344 3.980468-9.78125l-5.011718-29.226563 21.234375-20.699219c2.726562-2.65625 3.707031-6.628906 2.53125-10.25-1.179688-3.621093-4.308594-6.261718-8.074219-6.808593l-29.347656-4.261719-13.121094-26.59375c-1.6875-3.414062-5.164062-5.574219-8.96875-5.574219-3.808594 0-7.28125 2.160157-8.96875 5.574219l-13.125 26.59375-29.347656 4.261719c-3.765625.546875-6.894532 3.1875-8.070313 6.808593-1.175781 3.621094-.195312 7.59375 2.53125 10.25l21.234375 20.699219-5.015625 29.226563c-.640625 3.753906.902344 7.542968 3.980469 9.78125 3.082031 2.238281 7.164062 2.53125 10.53125.761718l26.246094-13.800781 26.25 13.800781c1.464844.769532 3.0625 1.148438 4.652344 1.148438zm-15.753907-42.71875 2.476563 14.4375-12.96875-6.816406c-1.453125-.765625-3.054688-1.148438-4.652344-1.148438s-3.195312.382813-4.652344 1.148438l-12.964844 6.816406 2.476563-14.4375c.554687-3.246094-.519531-6.554688-2.878906-8.851562l-10.488281-10.226563 14.496093-2.105469c3.257813-.476562 6.074219-2.519531 7.53125-5.472656l6.480469-13.136719 6.484375 13.140625c1.457031 2.949219 4.269531 4.996094 7.527344 5.46875l14.5 2.105469-10.492188 10.226563c-2.355469 2.296874-3.429687 5.605468-2.875 8.851562zm0 0"/><path d="m361.746094 290.1875 21.234375-20.699219c2.726562-2.65625 3.707031-6.628906 2.53125-10.25-1.179688-3.621093-4.308594-6.257812-8.074219-6.808593l-29.347656-4.261719-13.121094-26.59375c-1.6875-3.414063-5.164062-5.574219-8.96875-5.574219-3.808594 0-7.28125 2.160156-8.96875 5.574219l-13.125 26.59375-29.347656 4.261719c-3.765625.550781-6.894532 3.1875-8.070313 6.808593-1.175781 3.621094-.195312 7.59375 2.53125 10.25l21.234375 20.699219-5.015625 29.226562c-.640625 3.753907.902344 7.546876 3.980469 9.78125 3.082031 2.238282 7.164062 2.53125 10.53125.761719l26.246094-13.800781 26.25 13.800781c1.464844.769531 3.0625 1.148438 4.652344 1.148438 2.074218 0 4.136718-.644531 5.878906-1.910157 3.078125-2.234374 4.621094-6.027343 3.980468-9.78125zm-17.726563-10.652344c-2.355469 2.296875-3.429687 5.605469-2.875 8.851563l2.476563 14.4375-12.96875-6.816407c-1.453125-.765624-3.054688-1.148437-4.652344-1.148437s-3.195312.382813-4.652344 1.148437l-12.964844 6.816407 2.476563-14.4375c.554687-3.242188-.519531-6.554688-2.878906-8.851563l-10.488281-10.226562 14.496093-2.105469c3.257813-.472656 6.074219-2.519531 7.53125-5.472656l6.480469-13.136719 6.484375 13.140625c1.457031 2.949219 4.269531 4.996094 7.527344 5.46875l14.5 2.105469zm0 0"/><path d="m237.4375 252.429688-29.347656-4.261719-13.121094-26.59375c-1.6875-3.414063-5.164062-5.574219-8.96875-5.574219-3.808594 0-7.28125 2.160156-8.96875 5.574219l-13.125 26.59375-29.347656 4.261719c-3.765625.550781-6.894532 3.1875-8.070313 6.808593-1.175781 3.621094-.195312 7.59375 2.53125 10.25l21.234375 20.699219-5.015625 29.226562c-.640625 3.753907.902344 7.546876 3.980469 9.78125 3.082031 2.238282 7.164062 2.53125 10.53125.761719l26.246094-13.800781 26.25 13.800781c1.464844.769531 3.0625 1.148438 4.652344 1.148438 2.074218 0 4.136718-.644531 5.878906-1.910157 3.078125-2.234374 4.621094-6.027343 3.980468-9.78125l-5.015624-29.226562 21.234374-20.699219c2.726563-2.65625 3.707032-6.628906 2.53125-10.25-1.171874-3.621093-4.304687-6.257812-8.070312-6.808593zm-33.417969 27.105468c-2.355469 2.296875-3.429687 5.605469-2.875 8.851563l2.476563 14.4375-12.96875-6.816407c-1.453125-.765624-3.054688-1.148437-4.652344-1.148437s-3.195312.382813-4.652344 1.148437l-12.964844 6.816407 2.476563-14.4375c.554687-3.242188-.519531-6.554688-2.878906-8.851563l-10.488281-10.226562 14.496093-2.105469c3.257813-.472656 6.074219-2.519531 7.53125-5.472656l6.480469-13.136719 6.484375 13.140625c1.457031 2.949219 4.269531 4.996094 7.527344 5.46875l14.5 2.105469zm0 0"/><path d="m382.019531 352.5h-.007812c-5.523438 0-9.996094 4.476562-9.996094 10s4.480469 10 10.003906 10c5.523438 0 10-4.476562 10-10s-4.476562-10-10-10zm0 0"/><path d="m140.019531 50.5c0-5.523438-4.476562-10-10-10h-.007812c-5.523438 0-9.996094 4.476562-9.996094 10s4.480469 10 10.003906 10c5.523438 0 10-4.476562 10-10zm0 0"/></svg>