<svg height="512pt" viewBox="-60 0 512 512" width="512pt" xmlns="http://www.w3.org/2000/svg"><path d="m149.957031 120.203125c-5.523437 0-10.003906-4.476563-10.003906-10 0-5.519531 4.472656-10 9.996094-10h.007812c5.523438 0 10 4.480469 10 10 0 5.523437-4.476562 10-10 10zm0 0"/><path d="m390.300781 168.839844-42.066406-140.289063c-5.121094-17.082031-20.53125-28.550781-38.363281-28.550781h-227.71875c-17.828125 0-33.238282 11.46875-38.359375 28.550781l-23.550781 78.539063c-.070313.199218-.128907.398437-.179688.609375l-18.339844 61.140625c-3.679687 12.25-1.398437 25.160156 6.230469 35.429687 7.640625 10.25 19.339844 16.140625 32.128906 16.140625h19.21875v48.878906c-11.378906 4.109376-19.527343 15.019532-19.527343 27.789063 0 16.292969 13.25 29.542969 29.527343 29.542969 16.292969 0 29.542969-13.25 29.542969-29.542969 0-12.769531-8.160156-23.6875-19.542969-27.789063v-48.878906h86.683594v33.960938c-17.34375 9.289062-33.351563 26.597656-46.730469 50.929687-18.410156 33.480469-29.402344 77.050781-29.402344 116.539063v.082031c0 .136719 0 .289063.011719.429687.089844 11.46875 4.070313 22.027344 10.679688 30.429688-23.160157 4.359375-40.730469 24.75-40.730469 49.21875 0 5.519531 4.46875 10 10 10h252.398438c5.53125 0 10-4.558594 10-10.078125 0-24.402344-17.570313-44.78125-40.726563-49.140625 6.609375-8.402344 10.589844-18.960938 10.679687-30.429688.007813-.140624.007813-.292968.007813-.429687v-.082031c0-39.488282-10.988281-83.058594-29.398437-116.539063-13.382813-24.332031-29.390626-41.640625-46.730469-50.929687v-33.960938h125.898437c12.792969 0 24.492188-5.890625 32.132813-16.140625 7.628906-10.269531 9.910156-23.179687 6.226562-35.429687zm-321 137.78125c-5.25 0-9.527343-4.28125-9.527343-9.542969 0-5.257813 4.277343-9.539063 9.527343-9.539063 5.261719 0 9.542969 4.28125 9.542969 9.539063 0 5.261719-4.28125 9.542969-9.542969 9.542969zm182.871094 145.300781h-112.320313c-13.050781 0-24.179687-8.382813-28.300781-20.082031h168.933594c-4.101563 11.679687-15.25 20.082031-28.3125 20.082031zm58.359375 40.078125h-229.039062c4.101562-11.679688 15.25-20.078125 28.320312-20.078125h172.398438c13.070312 0 24.222656 8.398437 28.320312 20.078125zm-55.289062-177.070312c15.320312 27.878906 25.039062 63.421874 26.679687 96.910156h-171.820313c1.640626-33.488282 11.359376-69.03125 26.679688-96.910156 16.921875-30.78125 38.511719-48.429688 59.230469-48.429688 20.722656 0 42.3125 17.648438 59.230469 48.429688zm-69.257813-68.429688v-26.089844h20.058594v26.089844zm182.039063-54.171875c-3.820313 5.132813-9.679688 8.082031-16.082032 8.082031h-311.859375c-6.398437 0-12.257812-2.949218-16.078125-8.082031-3.832031-5.136719-4.972656-11.609375-3.121094-17.75l16.300782-54.378906h72.6875c5.519531 0 10-4.46875 10-10 0-5.519531-4.480469-10-10-10h-66.6875l19.757812-65.910157c2.570313-8.539062 10.28125-14.289062 19.210938-14.289062h227.71875c8.929687 0 16.640625 5.75 19.210937 14.289062l42.058594 140.289063c1.851563 6.140625.710937 12.613281-3.117187 17.75zm0 0"/></svg>