<svg height="512pt" viewBox="-50 0 512 512" width="512pt" xmlns="http://www.w3.org/2000/svg"><path d="m340.5 288h-4.21875c-4.441406-30.941406-29.203125-55.421875-60.28125-59.429688v-14.570312c0-5.519531-4.480469-10-10-10s-10 4.480469-10 10v14.871094c-30.140625 4.769531-53.941406 28.847656-58.28125 59.128906h-7.21875c-5.519531 0-10 4.480469-10 10s4.480469 10 10 10h150c5.519531 0 10-4.480469 10-10s-4.480469-10-10-10zm-122.488281 0c4.636719-22.800781 24.847656-40 48.988281-40s44.351562 17.199219 48.988281 40zm0 0"/><path d="m391 0h-301c-27.570312 0-50 22.429688-50 50v4.011719c-22.800781 4.636719-40 24.847656-40 48.988281s17.199219 44.351562 40 48.988281v55.023438c-22.800781 4.636719-40 24.847656-40 48.988281s17.199219 44.351562 40 48.988281v54.023438c-22.800781 4.636719-40 24.847656-40 48.988281s17.199219 44.351562 40 48.988281v5.011719c0 27.570312 22.429688 50 50 50h301c11.03125 0 20-8.96875 20-20v-472c0-11.03125-8.96875-20-20-20zm-351 436.28125c-11.640625-4.121094-20-15.242188-20-28.28125s8.359375-24.160156 20-28.28125zm0-152c-11.640625-4.121094-20-15.242188-20-28.28125s8.359375-24.160156 20-28.28125zm0-153c-11.640625-4.121094-20-15.242188-20-28.28125s8.359375-24.160156 20-28.28125zm80 360.71875h-30c-16.539062 0-30-13.460938-30-30v-412c0-16.539062 13.460938-30 30-30h30zm201-46h70.011719v46s0 0-.011719 0h-251v-387h71c5.519531 0 10-4.480469 10-10s-4.480469-10-10-10h-71v-65h251l.011719 406h-70.011719c-5.519531 0-10 4.480469-10 10s4.480469 10 10 10zm0 0"/><path d="m251.019531 105c-5.523437 0-10.003906-4.476562-10.003906-10s4.472656-10 9.996094-10h.007812c5.523438 0 10 4.476562 10 10s-4.476562 10-10 10zm0 0"/><path d="m281.019531 446c-5.523437 0-10.003906-4.476562-10.003906-10s4.472656-10 9.996094-10h.007812c5.523438 0 10 4.476562 10 10s-4.476562 10-10 10zm0 0"/></svg>