<svg height="512pt" viewBox="0 0 512 512" width="512pt" xmlns="http://www.w3.org/2000/svg"><path d="m256 512c-68.378906 0-132.667969-26.628906-181.019531-74.980469-48.351563-48.351562-74.980469-112.640625-74.980469-181.019531s26.628906-132.667969 74.980469-181.019531c48.351562-48.351563 112.640625-74.980469 181.019531-74.980469s132.667969 26.628906 181.019531 74.980469c48.351563 48.351562 74.980469 112.640625 74.980469 181.019531s-26.628906 132.667969-74.980469 181.019531c-48.351562 48.351563-112.640625 74.980469-181.019531 74.980469zm0-492c-63.039062 0-122.304688 24.546875-166.878906 69.121094-44.574219 44.574218-69.121094 103.839844-69.121094 166.878906s24.546875 122.304688 69.121094 166.878906c44.574218 44.574219 103.839844 69.121094 166.878906 69.121094s122.304688-24.546875 166.878906-69.121094c44.574219-44.574218 69.121094-103.839844 69.121094-166.878906s-24.546875-122.304688-69.121094-166.878906c-44.574218-44.574219-103.839844-69.121094-166.878906-69.121094zm0 0"/><path d="m256 462c-113.589844 0-206-92.410156-206-206s92.410156-206 206-206 206 92.410156 206 206-92.410156 206-206 206zm0-392c-102.5625 0-186 83.4375-186 186s83.4375 186 186 186 186-83.4375 186-186-83.4375-186-186-186zm0 0"/><path d="m233.710938 354.148438h-87.710938c-5.523438 0-10-4.480469-10-10v-87.710938c0-5.523438 4.476562-10 10-10h77.710938v-67.707031h-77.710938c-5.523438 0-10-4.480469-10-10 0-5.523438 4.476562-10 10-10h87.710938c5.519531 0 10 4.476562 10 10v87.707031c0 5.523438-4.480469 10-10 10h-77.710938v67.710938h77.710938c5.519531 0 10 4.476562 10 10 0 5.519531-4.480469 10-10 10zm0 0"/><path d="m366 353.269531c-5.523438 0-10-4.476562-10-10v-77.707031h-77.710938c-5.519531 0-10-4.476562-10-10v-87.710938c0-5.519531 4.480469-10 10-10 5.523438 0 10 4.480469 10 10v77.710938h67.710938v-77.710938c0-5.519531 4.476562-10 10-10s10 4.480469 10 10v175.417969c0 5.523438-4.476562 10-10 10zm0 0"/><path d="m256.019531 418c-5.523437 0-10.003906-4.476562-10.003906-10s4.472656-10 9.996094-10h.007812c5.523438 0 10 4.476562 10 10s-4.476562 10-10 10zm0 0"/><path d="m256.019531 111c-5.523437 0-10.003906-4.476562-10.003906-10s4.472656-10 9.996094-10h.007812c5.523438 0 10 4.476562 10 10s-4.476562 10-10 10zm0 0"/><path d="m414.019531 266c-5.523437 0-10.003906-4.476562-10.003906-10s4.472656-10 9.996094-10h.007812c5.523438 0 10 4.476562 10 10s-4.476562 10-10 10zm0 0"/><path d="m99.019531 266c-5.523437 0-10.003906-4.476562-10.003906-10s4.472656-10 9.996094-10h.007812c5.523438 0 10 4.476562 10 10s-4.476562 10-10 10zm0 0"/></svg>