<svg height="512pt" viewBox="-96 0 512 512" width="512pt" xmlns="http://www.w3.org/2000/svg"><path d="m290 0h-260c-16.539062 0-30 13.460938-30 30v452c0 16.539062 13.460938 30 30 30h260c16.539062 0 30-13.460938 30-30v-452c0-16.539062-13.460938-30-30-30zm10 482c0 5.511719-4.488281 10-10 10h-260c-5.511719 0-10-4.488281-10-10v-452c0-5.511719 4.488281-10 10-10h260c5.511719 0 10 4.488281 10 10v216h-70c-5.519531 0-10 4.480469-10 10s4.480469 10 10 10h70zm0 0"/><path d="m190.019531 266c-5.523437 0-10.003906-4.476562-10.003906-10s4.472656-10 9.996094-10h.007812c5.523438 0 10 4.476562 10 10s-4.476562 10-10 10zm0 0"/><path d="m250 451h-60c-5.523438 0-10-4.476562-10-10v-124c0-5.523438 4.476562-10 10-10h60c5.523438 0 10 4.476562 10 10v124c0 5.523438-4.476562 10-10 10zm-50-20h40v-104h-40zm0 0"/><path d="m130 451h-60c-5.523438 0-10-4.476562-10-10v-124c0-5.523438 4.476562-10 10-10h60c5.523438 0 10 4.476562 10 10v124c0 5.523438-4.476562 10-10 10zm-50-20h40v-104h-40zm0 0"/><path d="m250 206h-60c-5.523438 0-10-4.476562-10-10v-94c0-22.054688 17.945312-40 40-40s40 17.945312 40 40v94c0 5.523438-4.476562 10-10 10zm-50-20h40v-84c0-11.027344-8.972656-20-20-20s-20 8.972656-20 20zm0 0"/><path d="m130 206h-60c-5.523438 0-10-4.476562-10-10v-94c0-22.054688 17.945312-40 40-40s40 17.945312 40 40v94c0 5.523438-4.476562 10-10 10zm-50-20h40v-84c0-11.027344-8.972656-20-20-20s-20 8.972656-20 20zm0 0"/></svg>