<svg height="512pt" viewBox="-52 0 512 512" width="512pt" xmlns="http://www.w3.org/2000/svg"><path d="m408.910156 174.699219v-.027344c-.429687-24.992187-20.890625-45.191406-45.988281-45.191406h-122.921875v-9.480469c0-66.171875-53.828125-120-120-120s-120 53.828125-120 120v272c0 66.171875 53.828125 120 120 120s120-53.828125 120-120v-170.519531h122.921875c24.65625 0 44.839844-19.492188 45.949219-43.890625 0 0 0 0 0-.011719.027344-.699219.050781-1.386719.050781-2.097656 0-.261719 0-.519531-.011719-.78125zm-188.910156 217.300781c0 55.140625-44.859375 100-100 100s-100-44.859375-100-100v-272c0-55.140625 44.859375-100 100-100s100 44.859375 100 100v9.480469h-30v-9.839844c0-38.589844-31.398438-70-70-70s-70 31.410156-70 70v112c0 38.597656 31.398438 70 70 70s70-31.402344 70-70v-10.160156h30zm-111.078125-170.519531h61.078125v10.160156c0 27.570313-22.429688 50-50 50s-50-22.429687-50-50v-112c0-27.570313 22.429688-50 50-50s50 22.429687 50 50v9.839844h-61.078125c-5.523437 0-10 4.480469-10 10v72c0 5.53125 4.476563 10 10 10zm210.078125-35.480469h67.679688c-4.03125 9.109375-13.160157 15.480469-23.757813 15.480469h-244v-52h244c10.988281 0 20.40625 6.859375 24.199219 16.519531h-68.121094c-5.519531 0-10 4.480469-10 10s4.480469 10 10 10zm0 0"/><path d="m120 322c-38.601562 0-70 31.398438-70 70 0 38.429688 31.121094 69.71875 69.488281 69.988281.171875.011719.339844.011719.511719.011719s.339844 0 .511719-.011719c38.367187-.269531 69.488281-31.558593 69.488281-69.988281 0-38.601562-31.398438-70-70-70zm0 80c-5.511719 0-10-4.488281-10-10s4.488281-10 10-10 10 4.488281 10 10-4.488281 10-10 10zm10 38.988281v-20.707031c11.640625-4.121094 20-15.242188 20-28.28125 0-16.539062-13.460938-30-30-30s-30 13.460938-30 30c0 13.039062 8.359375 24.160156 20 28.28125v20.707031c-22.800781-4.636719-40-24.847656-40-48.988281 0-27.570312 22.429688-50 50-50s50 22.429688 50 50c0 24.140625-17.199219 44.351562-40 48.988281zm0 0"/><path d="m279.019531 186c-5.523437 0-10.003906-4.476562-10.003906-10s4.472656-10 9.996094-10h.007812c5.523438 0 10 4.476562 10 10s-4.476562 10-10 10zm0 0"/></svg>