<svg height="512pt" viewBox="-49 0 511 512" width="512pt" xmlns="http://www.w3.org/2000/svg"><path d="m206.519531 391.4375c-5.523437 0-10.003906-4.476562-10.003906-10s4.472656-10 9.996094-10h.007812c5.523438 0 10 4.476562 10 10s-4.476562 10-10 10zm0 0"/><path d="m398.5 356.769531c-9.03125-11.199219-21.421875-19.238281-35.820312-23.269531l-2.21875-.621094c-27.402344-7.667968-55.570313-13.308594-83.960938-16.789062v-62.058594c0-2.972656-1.320312-5.78125-3.601562-7.679688-1.46875-1.230468-3.25-1.992187-5.109376-2.230468 14.679688-15.28125 23.710938-36.019532 23.710938-58.820313v-155.300781c0-16.539062-13.460938-30-30-30h-110c-16.539062 0-30 13.460938-30 30v155.300781c0 22.808594 9.03125 43.550781 23.699219 58.828125-1.847657.230469-3.621094.992188-5.089844 2.210938-2.289063 1.898437-3.609375 4.71875-3.609375 7.691406v62c-29.039062 3.539062-57.851562 9.339844-85.898438 17.257812l-.472656.140626c-29.6875 8.390624-49.628906 33.429687-49.628906 62.300781v106.269531c0 5.519531 4.480469 10 10 10h392c5.519531 0 10-4.480469 10-10v-106.148438c0-14.210937-4.839844-27.722656-14-39.082031-9.03125-11.199219 9.160156 11.359375 0 0zm-127-234.390625c-30.46875-1.96875-60.757812-15.023437-76.660156-42.308594h76.660156zm-130-92.378906c0-5.511719 4.488281-10 10-10h110c5.511719 0 10 4.488281 10 10v30.070312h-130zm0 50.070312h22.46875c-5.390625 10.210938-13.367188 22.179688-22.46875 27.738282zm0 105.230469v-55.769531c17.449219-4.960938 29.605469-21.277344 38.078125-36.3125 2.277344 6.828125 11.003906 14.566406 15.960937 19.203125 6.910157 6.453125 14.734376 11.902344 23.121094 16.257813 16.320313 8.476562 34.550782 12.675781 52.839844 13.730468v42.890625c0 35.820313-29.148438 64.980469-65.019531 65-35.832031-.011719-64.980469-29.171875-64.980469-65zm115 80.738281v48.632813l-50.511719 9.289063-49.488281-9.261719v-48.621094c15.121094 2.761719 32.378906 4.222656 50.03125 4.222656h.128906c17.480469-.011719 34.648438-1.472656 49.691406-4.230469zm136 225.960938h-176v-70.511719c0-5.527343-4.480469-10-10-10s-10 4.472657-10 10v70.511719h-176v-96.269531c0-19.820313 14.089844-37.121094 35.089844-43.058594l.46875-.140625c31.5-8.902344 64.050781-15.011719 96.769531-18.171875l51.300781 9.601563c.300782.050781.601563.097656.910156.128906.3125.019531.621094.039062.929688.039062.609375 0 1.210938-.050781 1.8125-.167968l52.140625-9.582032c32.15625 3.109375 64.15625 9.089844 95.148437 17.761719l2.21875.621094c21.0625 5.886719 35.210938 23.199219 35.210938 43.089843zm0 0"/><path d="m206.5 230.246094c-22.054688 0-40-15.261719-40-34.027344 0-5.519531 4.476562-10 10-10s10 4.480469 10 10c0 7.605469 9.160156 14.027344 20 14.027344s20-6.421875 20-14.027344c0-5.519531 4.476562-10 10-10s10 4.480469 10 10c0 18.765625-17.945312 34.027344-40 34.027344zm0 0"/></svg>